<svg version="1.1" id="svg-logo" x="0px" y="0px"
	 width="289.8px" height="93px" viewBox="0 0 289.8 93" xml:space="preserve">
<g>
	<polygon points="4.7,2.5 2.8,2.5 2.8,39.5 4.7,39.5 	"/>
	<polygon points="8.1,2.5 6.2,2.5 6.2,39.5 8.1,39.5 	"/>
	<path d="M155,21c0-9.4-7.3-19.1-19.6-19.1c-12.3,0-19.6,9.7-19.6,19.1c0,9.4,7.3,19.1,19.6,19.1C147.6,40.1,155,30.4,155,21z
		 M117.7,21.1c0-9.6,7.9-17.5,17.6-17.5c9.7,0,17.6,7.8,17.6,17.5c0,9.7-7.7,17.3-17.6,17.3C125.5,38.4,117.7,30.8,117.7,21.1z"/>
	<path d="M151.4,21.1c0-8.9-7.1-16-16.1-16c-8.9,0-16.1,7.2-16.1,16c0,8.8,7.1,15.8,16.1,15.8C144.4,36.9,151.4,29.9,151.4,21.1z
		 M121.4,21c0-8.8,7.1-14,14-14c6.9,0,14,5.2,14,14c0,8.8-7.1,14-14,14C128.5,35,121.4,29.8,121.4,21z"/>
	<polygon points="241.9,5.7 240.3,5.7 230.9,5.7 230.9,7.5 239.9,7.5 239.9,39.5 241.9,39.5 241.9,23 241.9,7.4 243.4,7.4 
		243.4,39.5 245.3,39.5 245.3,7.5 254.3,7.5 254.3,5.7 243.4,5.7 	"/>
	<path d="M273.4,36.9c6.2,0,11.2-4.9,11.2-11c0-0.2,0-17.2,0-23.4l-2,0l0,22.1c0,6.3-3.6,10.4-9.3,10.4c-5.6,0-9.3-4.1-9.3-10.4V2.5
		l-2,0c0,6.1,0,23.2,0,23.4C262.1,31.9,267.2,36.9,273.4,36.9z"/>
	<path d="M286.1,2.5c0,6.2,0,23.2,0,23.4c0,6.9-5.7,12.6-12.7,12.5c-7,0-12.8-5.6-12.7-12.5c0-0.2,0-17.2,0-23.4h-1.9l0,23.5
		c0,8,6.2,14.1,14.5,14.1c8.5,0,14.7-5.9,14.7-14.1V2.5L286.1,2.5z"/>
	<path d="M21.3,89.6c-9.8,0-17.5-7.8-17.5-17.4c0-9.6,7.8-17.4,17.6-17.4c4.4,0,8.5,1.7,11.8,4.6l1.2-1.3L34,57.8
		c-3.2-2.9-8-4.7-12.7-4.7C9,53.1,1.7,62.8,1.7,72.2c0,9.4,7.3,19.1,19.6,19.1c4.6,0,9.5-1.9,12.9-5l0.3-0.2l-1.2-1.3
		C30,87.8,25.9,89.6,21.3,89.6z"/>
	<path d="M21.3,58.2c3.3,0,6.5,1.3,9.1,3.6l0.3,0.3l1.4-1.5c-3-2.6-6.7-4.2-10.7-4.2c-9,0-16,7-16.1,15.8c0,8.8,7.1,15.9,16,15.9
		c4.2,0,8-1.7,11-4.5L31,82.2l-0.3,0.3c-2.7,2.5-5.8,3.8-9.4,3.8c-6.7,0-14-5.4-14-14C7.3,64.4,13.6,58.2,21.3,58.2z"/>
	<path d="M55.2,56.3c-8.9,0-16.1,7.1-16.1,15.9C39,81.1,46.1,88,55.2,88c9.1,0,16.2-7,16.2-15.8C71.3,63.4,64.1,56.3,55.2,56.3z
		 M55.2,86.2c-6.9,0-14-5.3-14-14c0-8.8,7.1-14,14-14c6.9,0,14,5.2,14,14C69.1,81,62,86.2,55.2,86.2z"/>
	<path d="M55.2,53.1c-12.3,0-19.6,9.7-19.6,19.1c0,9.4,7.3,19.1,19.6,19.1c12.3,0,19.6-9.7,19.6-19.1C74.8,62.8,67.4,53.1,55.2,53.1
		z M55.1,89.5c-9.9,0-17.6-7.6-17.6-17.4c0-9.6,7.9-17.4,17.6-17.4c9.7,0,17.7,7.8,17.7,17.4C72.8,81.8,64.9,89.5,55.1,89.5z"/>
	<polygon points="247.2,53.7 244.9,53.7 236.7,68.8 235.9,70.2 235.2,68.8 227,53.7 224.8,53.7 234.8,71.9 234,73.5 223.1,53.7 
		220.7,53.7 233.3,76 233.3,78.5 233.3,81.6 233.3,90.7 235.2,90.7 235.2,78.2 235.2,75.1 236.7,72.4 	"/>
	<polygon points="236.8,75.6 236.7,75.7 236.7,75.8 236.7,78.5 236.7,90.7 238.6,90.7 238.6,82 238.6,78.9 238.6,76 251.1,53.7 
		249,53.7 	"/>
	<polygon points="241.9,2.5 230.9,2.5 230.9,4.2 241.9,4.2 243.4,4.2 254.3,4.2 254.3,2.5 243.4,2.5 	"/>
	<path d="M161.9,53.7l-10.3,25.5l-0.6,1.5l-4.1,10.1h2.1l4-10.1l0.6-1.5l8-20l0.9-2.2l0.8,2l-8.1,20.2l-0.6,1.5l-0.1,0.2l-4,9.9h2.1
		l3.2-8.3h16.5l3.2,8.3h2.2l-14.7-37L161.9,53.7z M172,80.6l-15.6,0l0.6-1.5l14.3,0L172,80.6z M170.4,77.3l-12.5,0l6.2-16.2
		L170.4,77.3z"/>
	<polygon points="176.8,79.1 166.6,53.7 164.7,53.7 179.5,90.7 181.5,90.7 177.4,80.6 	"/>
	<polygon points="99.7,84.4 116,54.3 116.4,53.7 116.1,53.7 115.5,53.7 114.3,53.7 99.7,80.7 85.2,53.7 84.3,53.7 83.4,53.7 
		83.2,53.7 83.4,54.2 	"/>
	<polygon points="117.8,54.3 117.6,54.7 116,57.4 100.5,86 100.3,86.3 99.7,87.5 99.7,87.6 99.6,87.5 99.3,86.9 98.9,86.2 98.8,86 
		83.4,57.4 82.5,55.6 81.9,54.5 81.8,54.4 81.6,54 81.5,53.7 80,53.7 80.1,90.7 81.9,90.7 81.9,60 81.9,58.3 83.4,61.1 83.4,90.7 
		85.4,90.7 85.4,64.8 99.7,91.5 114.8,63.6 114.8,90.7 116.7,90.7 116.7,59.9 118.2,57.1 118.2,57.5 118.2,90.7 120,90.7 120,53.7 
		118.1,53.7 	"/>
	<polygon points="180,33.2 196.4,3.1 196.7,2.5 196.4,2.5 195.9,2.5 194.6,2.5 180.1,29.4 165.6,2.5 164.7,2.5 163.8,2.5 163.5,2.5 
		163.8,2.9 	"/>
	<polygon points="161.6,7.5 161.6,5.8 163.1,8.6 163.1,38.2 165,38.2 165,12.3 180.1,40.3 194.5,13.6 194.5,39.5 196.4,39.5 
		196.4,9.9 197.9,7.1 197.9,7.5 197.9,39.5 199.8,39.5 199.8,2.5 198.5,2.5 198.1,3.1 197.9,3.4 196.4,6.2 180.9,34.8 180.7,35.1 
		180.1,36.3 180.1,36.4 180,36.2 179.7,35.7 179.3,35 179.2,34.8 163.8,6.1 162.9,4.4 162.3,3.3 162.2,3.2 162,2.8 161.8,2.5 
		159.7,2.5 159.7,38.2 161.6,38.2 	"/>
	<polygon points="33.6,33.2 50,3.1 50.3,2.5 50,2.5 49.5,2.5 48.2,2.5 33.7,29.4 19.2,2.5 18.3,2.5 17.4,2.5 17.1,2.5 17.4,2.9 	"/>
	<polygon points="15.9,8.8 15.9,7.1 17.4,9.9 17.4,39.5 19.4,39.5 19.4,13.6 33.7,40.3 48.1,13.6 48.1,39.5 50,39.5 50,9.9 
		51.5,7.1 51.5,7.5 51.5,39.5 53.4,39.5 53.4,2.5 52.1,2.5 51.7,3.1 51.7,3.1 51.5,3.4 50,6.2 34.5,34.8 34.3,35.1 33.7,36.3 
		33.6,36.4 33.6,36.2 33.3,35.7 32.9,35 32.8,34.8 17.4,6.1 16.5,4.4 15.9,3.3 15.8,3.2 15.6,2.8 15.4,2.5 14,2.5 14,39.5 
		15.9,39.5 	"/>
	<path d="M70.1,2.5l-8.5,0l-0.5,0l-1.4,0l0,37h1.9V4.3c0.4,0,0.9,0,1.5,0l0,0c1.2,0,4.4,0,6.3,0c0.3,0,0.6,0,0.8,0c0,0,0.1,0,0.1,0
		c0.1,0,0.2,0,0.2,0c0,0,0,0,0.1,0c0.1,0,0.1,0,0.2,0c0,0,0.1,0,0.1,0C76.4,4.3,81,9.1,81,15c0,5.9-4.5,10.8-10.1,10.8
		c0,0-0.7,0-0.7,0c-0.6,0-4.5,0-5.1,0l0-1.5c1.7,0,5.4,0,5.7,0c4.8,0,8.7-4.2,8.7-9.3c0-5.1-3.9-9.3-8.7-9.3c-0.4,0-6,0-7.7,0
		l0,18.5l0,1.5v1v12.6H65l0-11.8l5.1,0c8.6,0,12.6-6.5,12.6-12.5C82.7,9.2,79,2.5,70.1,2.5z M65,20.3l0-9.5V7.6h4.1c0.4,0,0.7,0,1,0
		c0,0,0,0,0.1,0c4.7,0.4,6.8,3,7.1,6.7c0,0.3,0,0.5,0,0.8c0,0,0,0.1,0,0.1c0,0,0,0,0,0c0,0.4,0,0.8-0.1,1.1c-0.5,3.5-3.4,6.1-7,6.1
		c-0.2,0-0.9,0-1.2,0H65V20.3z"/>
	<path d="M137.5,53.7l-8.5,0l-0.5,0l-1.4,0l0,37l1.9,0l0-35.2c0.4,0,0.9,0,1.5,0l0,0c1.2,0,4.4,0,6.3,0c0.3,0,0.6,0,0.8,0
		c0,0,0.1,0,0.1,0c0.1,0,0.2,0,0.2,0c0,0,0,0,0.1,0c0.1,0,0.1,0,0.2,0c0,0,0.1,0,0.1,0c5.6,0,10.2,4.8,10.2,10.8
		c0,5.9-4.5,10.8-10.1,10.8c0,0-0.7,0-0.7,0c-0.6,0-4.6,0-5.1,0v-1.4c1.7,0,5.4,0,5.7,0c4.8,0,8.7-4.2,8.7-9.3
		c0-5.1-3.9-9.3-8.7-9.3c-0.4,0-6,0-7.7,0l0,18.5l0,1.5l0,1l0,12.6l1.9,0V78.9l5.1,0c8.6,0,12.6-6.5,12.6-12.5
		C150.1,60.5,146.4,53.7,137.5,53.7z M132.4,71.5l0-9.5v-3.1h4.1c0.4,0,0.7,0,1,0c0,0,0.1,0,0.1,0c4.7,0.4,6.8,3,7.1,6.7
		c0,0.3,0,0.6,0,0.8c0,0,0,0.1,0,0.1c0,0,0,0,0,0c0,0.4,0,0.8-0.1,1.1c-0.5,3.5-3.4,6.1-7,6.1c-0.2,0-0.9,0-1.2,0l-4.1,0L132.4,71.5
		z"/>
	<path d="M207.3,4.3c0.4,0,0.9,0,1.5,0l0,0c1.2,0,4.4,0,6.3,0c0.3,0,0.6,0,0.8,0c0,0,0.1,0,0.1,0c0.1,0,0.2,0,0.2,0c0,0,0,0,0.1,0
		c0.1,0,0.1,0,0.2,0c0,0,0.1,0,0.1,0c5.6,0,10.2,4.8,10.2,10.8c0,5.9-4.5,10.8-10.1,10.8c0,0-0.7,0-0.7,0c-0.6,0-4.5,0-5.1,0l0-1.4
		c1.7,0,5.4,0,5.7,0c4.8,0,8.7-4.2,8.7-9.4c0-5.1-3.9-9.3-8.7-9.3c-0.4,0-6,0-7.7,0v18.5v1.5l0,1l0,12.6l1.9,0l0-11.8h5.1
		c8.6,0,12.6-6.5,12.6-12.5c0-6-3.8-12.8-12.6-12.8l-8.5,0l-0.5,0l-1.4,0l0,37h1.9V4.3z M210.8,20.3l0-9.5V7.6h4.1c0.4,0,0.7,0,1,0
		c0,0,0.1,0,0.1,0c4.7,0.4,6.8,3,7.1,6.7c0,0.3,0,0.5,0,0.8c0,0.1,0,0.1,0,0.1c0,0,0,0,0,0c0,0.4,0,0.8-0.1,1.1
		c-0.5,3.5-3.4,6.1-7,6.1c-0.2,0-0.9,0-1.2,0l-4.1,0V20.3z"/>
	<polygon points="215.2,82.9 215.2,88.1 213.6,85.9 213.6,53.7 211.7,53.7 211.7,83 192,53.7 190.6,53.7 189.8,53.7 190.6,54.9 
		212.2,87 213.7,89.1 214.2,89.9 214.8,90.7 217,90.7 217,53.7 215.2,53.7 	"/>
	<polygon points="190.6,57.6 189.1,55.4 188.7,54.9 187.9,53.7 185.6,53.7 185.6,90.7 187.6,90.7 187.6,59.5 187.6,56.3 189.1,58.4 
		189.1,90.7 189.8,90.7 191,90.7 191,90.7 191,61.4 210.7,90.7 212.2,90.7 213,90.7 212.2,89.6 	"/>
	<path d="M89.7,23.4l0-1.5l0-3.3v-2.2V5.6l0-1.5c0.4,0,0.9,0,1.5,0c1,0,2.2,0,3.5,0c2.7,0,5.4,0,5.5,0c5,0,9.1,4.3,9.1,9.6
		c0,5.3-4.1,9.6-9.1,9.6c0,0-1.2,0-2.7,0c-2,0-4.4,0-4.6,0v-1.5c0.2,0,0.7,0,1.3,0c2.1,0,5.8,0,5.9,0c4.2,0,7.6-3.6,7.6-8.1
		c0-4.5-3.4-8.1-7.6-8.1c-0.3,0-4.3,0-7.4,0c-0.6,0-1.1,0-1.6,0v2.1l0,10.2l0,0.6l0,1.5l0,1.8l0,1.5l0,1.6l0,14.5l1.8,0L93,25
		l14.2,14.5l2.8,0L95.5,24.9c0.7,0,1.4,0,2.1,0l14.5,14.6l2.6,0L100.1,25c6.6,0,10.9-5.2,10.9-11.1c0-0.4,0-0.9-0.1-1.4
		c-0.3-5.5-4.8-9.8-10.4-10v0h-2.1l-7.3,0l-1.5,0l-2,0v0.6v1.3v1.6l0,8.4v2.2l0,5.3l0,1.5l0,16.2l2,0L89.7,23.4z M93,19.7l0-12.3
		h5.4c4.7,0,7,2.1,7.3,5.9c0,0.2,0,0.4,0,0.6c0,0.8-0.1,1.5-0.3,2.2c-0.1,0.4-0.3,0.8-0.5,1.2c0,0,0,0,0,0c-0.1,0.1-0.1,0.2-0.2,0.3
		c-1,1.9-3.5,2.6-5.7,2.6c-0.2,0-6,0-6,0L93,19.7z"/>
</g>
</svg>
